<svg xmlns="http://www.w3.org/2000/svg" viewBox="0 0 64 64" role="img" aria-label="ChatGPT">
  <circle cx="32" cy="32" r="30" fill="#10A37F"/>
  <g fill="none" stroke="#fff" stroke-width="4.2" stroke-linecap="round" stroke-linejoin="round">
    <path d="M32 15a11 11 0 0 1 10.5 7.8A11 11 0 0 1 47 42a11 11 0 0 1-16.5 7.5A11 11 0 0 1 14.8 35 11 11 0 0 1 21.5 18.7 11 11 0 0 1 32 15Z"/>
    <path d="m23 24 9-5 9 5v10l-9 5-9-5V24Z"/>
    <path d="m23 34 9 5v10M41 34l-9 5M32 19v10l-9 5M41 24l-9 5"/>
  </g>
</svg>
